<svg aria-hidden="true" style="position: absolute; width: 0; height: 0; overflow: hidden;" version="1.1" xmlns="http://www.w3.org/2000/svg" xmlns:xlink="http://www.w3.org/1999/xlink">
<defs>
<symbol id="icon-css3" viewBox="0 0 32 32">
<path fill="#1572b6" style="fill: var(--color1, #1572b6)" d="M2 0h28l-2.547 28.751-11.484 3.249-11.42-3.251zM24.787 5.884l-17.573-0.004 0.284 3.496 13.5 0.003-0.34 3.621h-8.853l0.32 3.431h8.243l-0.488 4.697-3.88 1.072-3.941-1.080-0.251-2.813h-3.48l0.387 5.14 7.287 2.271 7.164-2.040z"></path>
</symbol>
<symbol id="icon-github" viewBox="0 0 32 32">
<path d="M16 0.396c-8.84 0-16 7.164-16 16 0 7.071 4.584 13.067 10.94 15.18 0.8 0.151 1.093-0.344 1.093-0.769 0-0.38-0.013-1.387-0.020-2.72-4.451 0.965-5.389-2.147-5.389-2.147-0.728-1.847-1.78-2.34-1.78-2.34-1.449-0.992 0.112-0.972 0.112-0.972 1.607 0.112 2.451 1.648 2.451 1.648 1.427 2.447 3.745 1.74 4.66 1.331 0.144-1.035 0.556-1.74 1.013-2.14-3.553-0.4-7.288-1.776-7.288-7.907 0-1.747 0.62-3.173 1.647-4.293-0.18-0.404-0.72-2.031 0.14-4.235 0 0 1.34-0.429 4.4 1.64 1.28-0.356 2.64-0.532 4-0.54 1.36 0.008 2.72 0.184 4 0.54 3.040-2.069 4.38-1.64 4.38-1.64 0.86 2.204 0.32 3.831 0.16 4.235 1.020 1.12 1.64 2.547 1.64 4.293 0 6.147-3.74 7.5-7.3 7.893 0.56 0.48 1.080 1.461 1.080 2.96 0 2.141-0.020 3.861-0.020 4.381 0 0.42 0.28 0.92 1.1 0.76 6.401-2.099 10.981-8.099 10.981-15.159 0-8.836-7.164-16-16-16z"></path>
</symbol>
<symbol id="icon-html5" viewBox="0 0 32 32">
<path fill="#e34f26" style="fill: var(--color2, #e34f26)" d="M2 0h28l-2.547 28.751-11.484 3.249-11.419-3.251zM11.375 13l-0.309-3.624 13.412 0.004 0.307-3.496-17.568-0.004 0.931 10.68h12.168l-0.435 4.568-3.88 1.072-3.94-1.080-0.251-2.813h-3.479l0.44 5.561 7.229 1.933 7.172-1.924 0.992-10.876z"></path>
</symbol>
<symbol id="icon-messenger" viewBox="0 0 32 32">
<path fill="#00b2ff" style="fill: var(--color3, #00b2ff)" d="M0 15.52c0-8.92 6.987-15.52 16-15.52s16 6.6 16 15.52-6.987 15.52-16 15.52c-1.613 0-3.173-0.213-4.627-0.613-0.1-0.028-0.214-0.044-0.333-0.044-0.188 0-0.367 0.041-0.529 0.114l0.008-0.003-3.187 1.4c-0.153 0.070-0.332 0.111-0.521 0.111-0.694 0-1.259-0.553-1.279-1.242l-0-0.002-0.093-2.853c-0.016-0.361-0.177-0.681-0.426-0.906l-0.001-0.001c-3.085-2.791-5.015-6.808-5.015-11.277 0-0.071 0.001-0.143 0.001-0.214l-0 0.011zM11.093 12.6l-4.693 7.467c-0.467 0.707 0.427 1.52 1.093 1l5.053-3.827c0.347-0.267 0.8-0.267 1.16 0l3.733 2.8c1.12 0.84 2.72 0.533 3.467-0.64l4.693-7.467c0.467-0.707-0.427-1.507-1.093-1l-5.053 3.827c-0.333 0.267-0.8 0.267-1.147 0l-3.733-2.8c-0.397-0.303-0.901-0.485-1.447-0.485-0.853 0-1.602 0.445-2.028 1.115l-0.006 0.010z"></path>
</symbol>
<symbol id="icon-opera" viewBox="0 0 32 32">
<path fill="#ff1b2d" style="fill: var(--color4, #ff1b2d)" d="M10.735 6.984c-1.771 2.088-2.915 5.177-2.995 8.64v0.752c0.081 3.464 1.224 6.549 2.995 8.639 2.295 2.981 5.705 4.872 9.519 4.872 2.341 0 4.533-0.716 6.409-1.961-2.824 2.536-6.564 4.075-10.663 4.075-0.256 0-0.511-0.005-0.76-0.019-8.488-0.396-15.24-7.4-15.24-15.981 0-8.839 7.164-16 16-16h0.060c4.073 0.016 7.787 1.555 10.604 4.073-1.877-1.24-4.068-1.961-6.413-1.961-3.811 0-7.223 1.893-9.52 4.872zM32 16c0 4.741-2.060 8.997-5.336 11.927-4.104 2-7.928 0.601-9.195-0.273 4.031-0.885 7.076-5.76 7.076-11.653 0-5.896-3.044-10.767-7.076-11.653 1.265-0.872 5.091-2.271 9.195-0.273 3.276 2.927 5.336 7.187 5.336 11.927z"></path>
</symbol>
<symbol id="icon-react" viewBox="0 0 32 32">
<path fill="#61dafb" style="fill: var(--color5, #61dafb)" d="M16 13.148c-1.575 0-2.852 1.277-2.852 2.852s1.277 2.852 2.852 2.852v0c1.575 0 2.852-1.277 2.852-2.852s-1.277-2.852-2.852-2.852v0zM8.011 21.673l-0.629-0.16c-4.691-1.185-7.381-3.197-7.381-5.519s2.691-4.333 7.381-5.519l0.629-0.159 0.177 0.624c0.545 1.86 1.163 3.443 1.899 4.957l-0.082-0.186 0.135 0.284-0.135 0.284c-0.656 1.329-1.275 2.912-1.761 4.551l-0.056 0.22zM7.089 11.933c-3.565 1.001-5.753 2.533-5.753 4.061 0 1.527 2.188 3.059 5.753 4.061 0.512-1.62 1.046-2.965 1.662-4.263l-0.086 0.202c-0.531-1.098-1.066-2.443-1.511-3.828l-0.065-0.234zM23.989 21.673l-0.177-0.625c-0.544-1.859-1.162-3.441-1.9-4.954l0.081 0.184-0.135-0.284 0.135-0.284c0.656-1.329 1.275-2.911 1.762-4.55l0.056-0.221 0.177-0.624 0.631 0.159c4.689 1.185 7.38 3.197 7.38 5.52s-2.691 4.333-7.38 5.519zM23.335 15.995c0.64 1.385 1.169 2.747 1.576 4.061 3.567-1.003 5.753-2.535 5.753-4.061 0-1.528-2.188-3.059-5.753-4.061-0.511 1.619-1.045 2.963-1.662 4.262l0.086-0.2zM7.080 11.927l-0.177-0.623c-1.319-4.648-0.919-7.979 1.097-9.141 1.977-1.141 5.152 0.207 8.479 3.621l0.453 0.465-0.453 0.465c-1.146 1.19-2.207 2.482-3.162 3.853l-0.068 0.103-0.18 0.257-0.313 0.027c-1.875 0.151-3.596 0.439-5.264 0.86l0.218-0.047zM9.608 3.087c-0.357 0-0.673 0.077-0.94 0.231-1.325 0.764-1.56 3.42-0.647 7.004 1.21-0.285 2.681-0.521 4.18-0.658l0.131-0.010c0.894-1.264 1.792-2.37 2.756-3.414l-0.020 0.022c-2.080-2.025-4.049-3.175-5.46-3.175zM22.393 30.236c-0.001 0-0.001 0 0 0-1.9 0-4.34-1.431-6.872-4.031l-0.453-0.465 0.453-0.465c1.146-1.19 2.206-2.482 3.16-3.854l0.068-0.103 0.18-0.257 0.312-0.027c1.875-0.15 3.597-0.438 5.267-0.858l-0.218 0.046 0.629-0.159 0.179 0.624c1.316 4.645 0.917 7.977-1.099 9.139-0.449 0.259-0.988 0.411-1.562 0.411-0.016 0-0.031-0-0.047-0l0.002 0zM16.932 25.728c2.080 2.025 4.049 3.175 5.46 3.175h0.001c0.356 0 0.673-0.077 0.939-0.231 1.325-0.764 1.561-3.421 0.647-7.005-1.212 0.286-2.682 0.522-4.182 0.658l-0.13 0.010c-0.893 1.265-1.791 2.371-2.755 3.416l0.020-0.022zM24.92 11.927l-0.629-0.159c-1.453-0.376-3.175-0.664-4.939-0.806l-0.111-0.007-0.312-0.027-0.18-0.257c-1.021-1.474-2.082-2.766-3.237-3.966l0.009 0.010-0.453-0.465 0.453-0.465c3.325-3.413 6.499-4.761 8.479-3.621 2.016 1.163 2.416 4.493 1.099 9.14zM19.667 9.653c1.523 0.139 2.969 0.364 4.312 0.668 0.915-3.584 0.679-6.24-0.647-7.004-1.317-0.761-3.793 0.405-6.4 2.944 0.943 1.022 1.841 2.128 2.666 3.289l0.069 0.103zM9.608 30.236c-0.014 0-0.030 0-0.046 0-0.574 0-1.113-0.152-1.577-0.419l0.015 0.008c-2.016-1.161-2.416-4.492-1.097-9.139l0.176-0.624 0.629 0.159c1.54 0.388 3.239 0.661 5.047 0.812l0.313 0.027 0.179 0.257c1.022 1.475 2.083 2.767 3.239 3.967l-0.010-0.010 0.453 0.465-0.453 0.465c-2.531 2.6-4.971 4.031-6.868 4.031zM8.021 21.667c-0.915 3.584-0.679 6.241 0.647 7.005 1.316 0.751 3.791-0.407 6.4-2.944-0.943-1.022-1.841-2.129-2.667-3.29l-0.069-0.103c-1.629-0.146-3.099-0.382-4.534-0.711l0.224 0.043zM16 22.504c-1.097 0-2.225-0.048-3.355-0.141l-0.313-0.027-0.18-0.257c-0.544-0.768-1.139-1.691-1.697-2.639l-0.103-0.19c-0.452-0.758-0.971-1.732-1.45-2.728l-0.105-0.243-0.133-0.284 0.133-0.284c0.584-1.239 1.102-2.212 1.658-3.161l-0.103 0.191c0.552-0.955 1.159-1.907 1.8-2.829l0.18-0.257 0.313-0.027c1.005-0.090 2.174-0.142 3.355-0.142s2.35 0.052 3.505 0.153l-0.15-0.011 0.312 0.027 0.179 0.257c1.177 1.666 2.294 3.567 3.252 5.56l0.104 0.24 0.135 0.284-0.135 0.284c-1.058 2.232-2.176 4.133-3.439 5.925l0.083-0.125-0.179 0.257-0.312 0.027c-1.129 0.093-2.259 0.141-3.356 0.141zM13.071 21.059c1.973 0.148 3.885 0.148 5.86 0 1.004-1.445 1.978-3.104 2.827-4.836l0.101-0.228c-0.947-1.958-1.922-3.617-3.012-5.19l0.083 0.126c-0.877-0.071-1.898-0.111-2.929-0.111s-2.052 0.040-3.063 0.119l0.134-0.008c-1.008 1.447-1.983 3.106-2.83 4.84l-0.099 0.224c0.951 1.96 1.926 3.619 3.014 5.193l-0.085-0.13z"></path>
</symbol>
<symbol id="icon-reddit" viewBox="0 0 32 32">
<path fill="#ff4500" style="fill: var(--color6, #ff4500)" d="M2.939 18.732c-0.080 0.368-0.121 0.747-0.121 1.129 0 4.591 5.869 8.332 13.085 8.332 7.213 0 13.083-3.739 13.083-8.332 0-0.365-0.039-0.728-0.109-1.079l-0.020-0.043c-0.028-0.073-0.039-0.147-0.039-0.22-0.403-1.567-1.489-2.988-3.061-4.137-0.060-0.021-0.117-0.052-0.168-0.093-0.035-0.027-0.060-0.056-0.089-0.085-2.389-1.645-5.808-2.677-9.595-2.677-3.753 0-7.139 1.012-9.528 2.628-0.019 0.024-0.039 0.044-0.065 0.065-0.052 0.044-0.112 0.080-0.173 0.1-1.608 1.149-2.723 2.583-3.139 4.164 0 0.077-0.019 0.152-0.049 0.228zM15.969 25.987c-2.392 0-4.076-0.519-5.151-1.596-0.231-0.232-0.231-0.609 0-0.843 0.235-0.22 0.613-0.22 0.847 0 0.84 0.839 2.247 1.257 4.304 1.257 2.056 0 3.455-0.4 4.292-1.239 0.22-0.219 0.6-0.219 0.839 0 0.22 0.24 0.22 0.62 0 0.86-1.079 1.077-2.753 1.597-5.149 1.597zM11.161 15.889c-1.219 0-2.236 1.020-2.236 2.236 0 1.213 1.017 2.2 2.236 2.2s2.201-0.987 2.201-2.2c0-1.216-0.985-2.236-2.201-2.236zM20.805 15.889c-1.219 0-2.237 1.020-2.237 2.236 0 1.213 1.019 2.2 2.237 2.2s2.201-0.987 2.201-2.2c0-1.216-0.985-2.236-2.201-2.236zM26.869 13.763c1.383 1.111 2.4 2.428 2.919 3.872 0.6-0.448 0.959-1.152 0.959-1.932 0-1.336-1.087-2.421-2.424-2.421-0.532 0-1.037 0.172-1.453 0.484zM3.615 13.284c-1.337 0-2.423 1.088-2.423 2.424 0 0.724 0.319 1.397 0.859 1.852 0.535-1.439 1.563-2.737 2.951-3.835-0.403-0.28-0.884-0.439-1.385-0.439zM15.904 29.389c-7.875 0-14.279-4.273-14.279-9.523 0-0.367 0.031-0.725 0.091-1.079-1.057-0.657-1.716-1.816-1.716-3.085 0-1.995 1.636-3.617 3.633-3.617 0.899 0 1.737 0.328 2.396 0.909 2.475-1.588 5.809-2.588 9.483-2.656l2.416-7.365 0.539 0.127c0 0 0.021 0 0.021 0.003l5.631 1.324c0.459-1.064 1.517-1.813 2.753-1.813 1.639 0 2.975 1.339 2.975 2.979 0 1.643-1.337 2.979-2.975 2.979s-2.973-1.339-2.973-2.973l-5.135-1.216-1.956 5.969c3.533 0.14 6.729 1.139 9.125 2.695 0.659-0.619 1.525-0.959 2.444-0.959 1.997 0 3.624 1.617 3.624 3.615 0 1.316-0.72 2.515-1.837 3.153 0.039 0.34 0.079 0.659 0.079 0.999-0.020 5.251-6.408 9.524-14.293 9.524zM26.809 3.807c-0.987 0-1.787 0.799-1.787 1.784 0 0.984 0.8 1.787 1.787 1.787 0.976 0 1.773-0.8 1.773-1.779 0-0.977-0.797-1.776-1.796-1.776z"></path>
</symbol>
<symbol id="icon-twitter" viewBox="0 0 32 32">
<path fill="#1da1f2" style="fill: var(--color7, #1da1f2)" d="M31.939 6.092c-1.18 0.519-2.44 0.872-3.767 1.033 1.352-0.815 2.392-2.099 2.884-3.631-1.268 0.74-2.673 1.279-4.169 1.579-1.195-1.279-2.897-2.079-4.788-2.079-3.623 0-6.56 2.937-6.56 6.556 0 0.52 0.060 1.020 0.169 1.499-5.453-0.257-10.287-2.876-13.521-6.835-0.569 0.963-0.888 2.081-0.888 3.3 0 2.28 1.16 4.284 2.917 5.461-1.076-0.035-2.088-0.331-2.971-0.821v0.081c0 3.18 2.257 5.832 5.261 6.436-0.551 0.148-1.132 0.228-1.728 0.228-0.419 0-0.82-0.040-1.221-0.115 0.841 2.604 3.26 4.503 6.139 4.556-2.24 1.759-5.079 2.807-8.136 2.807-0.52 0-1.039-0.031-1.56-0.089 2.919 1.859 6.357 2.945 10.076 2.945 12.072 0 18.665-9.995 18.665-18.648 0-0.279 0-0.56-0.020-0.84 1.281-0.919 2.4-2.080 3.28-3.397z"></path>
</symbol>
<symbol id="icon-wattpad" viewBox="0 0 32 32">
<path fill="#f68d12" style="fill: var(--color8, #f68d12)" d="M30.609 24.347c0 2.367-1.809 4.175-4.173 4.175h-13.916c-7.095 0-11.131-3.756-11.131-10.435v-10.433c0-2.365 1.809-4.173 4.175-4.173h4.173c0.696 0 1.531 0.139 2.088 0.556 0.556-0.417 1.391-0.556 2.087-0.556h4.173c0.696 0 1.531 0.139 2.087 0.556 0.557-0.417 1.392-0.556 2.088-0.556h4.173c2.365 0 4.173 1.808 4.173 4.173zM26.436 2.087h-4.175c-0.696 0-1.392 0.14-2.088 0.417-0.617-0.26-1.333-0.413-2.085-0.417h-4.175c-0.696 0-1.392 0.14-2.087 0.417-0.617-0.26-1.334-0.413-2.086-0.417h-4.175c-3.070 0.009-5.557 2.496-5.565 5.566v10.435c0 7.373 4.731 11.827 12.521 11.827h13.913c3.071-0.009 5.558-2.497 5.565-5.567v-16.695c-0.009-3.070-2.495-5.556-5.564-5.565h-0.001zM12.521 24.347h13.913v-16.693h-4.173v13.912h-4.173v-13.913h-4.175v13.913h-1.393c-1.391 0-2.783-1.113-2.783-3.479v-10.433h-4.173v10.435c0 4.173 1.947 6.261 6.956 6.261z"></path>
</symbol>
<symbol id="icon-javascript" viewBox="0 0 32 32">
<path fill="#f7df1e" style="fill: var(--color9, #f7df1e)" d="M0 0h32v32h-32zM29.379 24.368c-0.233-1.46-1.184-2.687-4.004-3.831-0.981-0.46-2.072-0.78-2.396-1.52-0.121-0.44-0.14-0.68-0.061-0.94 0.2-0.861 1.22-1.12 2.020-0.88 0.52 0.16 1 0.56 1.301 1.2 1.379-0.901 1.379-0.901 2.34-1.5-0.36-0.56-0.539-0.801-0.781-1.040-0.84-0.94-1.959-1.42-3.779-1.379l-0.94 0.119c-0.901 0.22-1.76 0.7-2.28 1.34-1.52 1.721-1.081 4.721 0.759 5.961 1.82 1.36 4.481 1.659 4.821 2.94 0.32 1.56-1.16 2.060-2.621 1.88-1.081-0.24-1.68-0.781-2.34-1.781l-2.44 1.401c0.28 0.64 0.6 0.919 1.080 1.479 2.32 2.341 8.12 2.221 9.161-1.339 0.039-0.12 0.32-0.94 0.099-2.2zM17.401 14.708h-2.997c0 2.584-0.012 5.152-0.012 7.74 0 1.643 0.084 3.151-0.184 3.615-0.44 0.919-1.573 0.801-2.088 0.64-0.528-0.261-0.796-0.621-1.107-1.14-0.084-0.14-0.147-0.261-0.169-0.261l-2.433 1.5c0.407 0.84 1 1.563 1.765 2.023 1.14 0.68 2.672 0.9 4.276 0.54 1.044-0.301 1.944-0.921 2.415-1.881 0.68-1.24 0.536-2.76 0.529-4.461 0.016-2.739 0-5.479 0-8.239z"></path>
</symbol>
</defs>
</svg>
